PathFileType	4	(X/Y/Z)	/Users/itak/Documents/Research/Walk-IL/dataset/trc/00405_00012.trc
DataRate	CameraRate	NumFrames	NumMarkers	Units	OrigDataRate	OrigDataStartFrame	OrigNumFrames
100.000000	100.000000	4	54	mm	100.000000	220	587
Frame#	Time	RPSI			LPSI			L3			STRN			T10			C7			CLAV			RBAK			LBAK			LSHO			LUPA			LAEL			LAOL			LWTS			LWPS			LFRA			LHPS			LHTS			RSHO			RUPA			RAEL			RAOL			RWTS			RWPS			RFRA			RIFD			RHPS			RBHD			LFHD			RFHD			LBHD			LHIP			RHIP			RASI			LASI			LKNE			LTHI			LANK			LTIP			LTOE			LMT1			LMT5			LHEE			RKNE			RTHI			RANK			RTIP			RTOE			RMT1			RMT5			RHEE			LIFD			RHTS			*53			
		X1	Y1	Z1	X2	Y2	Z2	X3	Y3	Z3	X4	Y4	Z4	X5	Y5	Z5	X6	Y6	Z6	X7	Y7	Z7	X8	Y8	Z8	X9	Y9	Z9	X10	Y10	Z10	X11	Y11	Z11	X12	Y12	Z12	X13	Y13	Z13	X14	Y14	Z14	X15	Y15	Z15	X16	Y16	Z16	X17	Y17	Z17	X18	Y18	Z18	X19	Y19	Z19	X20	Y20	Z20	X21	Y21	Z21	X22	Y22	Z22	X23	Y23	Z23	X24	Y24	Z24	X25	Y25	Z25	X26	Y26	Z26	X27	Y27	Z27	X28	Y28	Z28	X29	Y29	Z29	X30	Y30	Z30	X31	Y31	Z31	X32	Y32	Z32	X33	Y33	Z33	X34	Y34	Z34	X35	Y35	Z35	X36	Y36	Z36	X37	Y37	Z37	X38	Y38	Z38	X39	Y39	Z39	X40	Y40	Z40	X41	Y41	Z41	X42	Y42	Z42	X43	Y43	Z43	X44	Y44	Z44	X45	Y45	Z45	X46	Y46	Z46	X47	Y47	Z47	X48	Y48	Z48	X49	Y49	Z49	X50	Y50	Z50	X51	Y51	Z51	X52	Y52	Z52	X53	Y53	Z53	X54	Y54	Z54	

221	2.2	-750.6964111328125	936.5623779296875	265.6186828613281	-880.4234619140625	937.4713134765625	291.7661743164062	-816.0849609375	1019.34521484375	285.9060363769531	-829.8017578125	1178.479248046875	53.98618316650391	-817.3594360351562	1117.993896484375	300.3688659667969	-824.8616333007812	1368.424926757812	270.7082214355469	-821.5961303710938	1295.402954101562	111.7448348999023	-764.0313720703125	1219.155639648438	312.6253662109375	-925.8370971679688	1337.117431640625	288.4415283203125	-977.1866455078125	1358.666015625	203.1869049072266	-1048.456665039062	1244.254028320312	233.1527099609375	-1091.050170898438	1056.949829101562	209.9015808105469	-1029.425903320312	1018.5478515625	253.8844451904297	-1071.882202148438	944.8350219726562	15.20386791229248	-1144.095703125	921.67626953125	47.64430999755859	-1114.295654296875	989.232421875	149.5820159912109	-1153.391479492188	866.149658203125	-18.56518363952637	-1110.755737304688	889.9443969726562	-59.54898452758789	-668.6058349609375	1342.073852539062	217.4615173339844	-617.6932983398438	1278.08642578125	241.9928741455078	-605.4872436523438	1021.761657714844	298.3184509277344	-698.5462036132812	1019.716979980469	290.1457824707031	-611.9693603515625	783.255615234375	224.8957061767578	-563.0582885742188	787.5032958984375	280.1494140625	-584.9124145507812	955.3540649414062	294.4146118164062	-616.2141723632812	617.7522583007812	285.2504272460938	-566.613037109375	702.8182373046875	306.1656494140625	-732.935302734375	1549.36669921875	244.0228729248047	-849.1000366210938	1566.10791015625	84.17695617675781	-731.1085815429688	1558.086547851562	110.4082717895508	-890.5187377929688	1558.60693359375	227.1000518798828	-1008.776428222656	935.7789306640625	227.3651885986328	-656.6420288085938	913.0172119140625	161.1388549804688	-736.200927734375	933.1334228515625	43.74872207641602	-993.0459594726562	931.8113403320312	105.1631851196289	-1036.296020507812	448.2572937011719	222.0558013916016	-1031.67529296875	586.08154296875	208.7530670166016	-961.8539428710938	166.0957641601562	578.971923828125	-1013.240234375	300.1391296386719	407.510498046875	-924.498779296875	34.43811416625977	433.7560729980469	-888.1424560546875	78.25995635986328	470.37744140625	-982.6914672851562	60.36357879638672	514.9754028320312	-904.7017211914062	200.7316284179688	582.67333984375	-787.2212524414062	460.8924255371094	-25.90673065185547	-705.2291259765625	705.7271118164062	30.04983711242676	-884.5252685546875	52.94557189941406	-23.23888397216797	-824.4921264648438	340.7338256835938	-55.17033004760742	-935.4698486328125	39.91540145874023	-207.0490875244141	-973.034423828125	44.59190368652344	-133.2422943115234	-875.9082641601562	48.24374008178711	-105.4687881469727	-941.689453125	41.70446395874023	45.77000045776367	-1120.163696289062	812.89501953125	-97.9344482421875	-598.6890869140625	676.6264038085938	248.0467071533203	nan	nan	nan	
222	2.21	-751.291748046875	937.8192138671875	255.4318389892578	-881.1638793945312	937.9019165039062	280.6613464355469	-816.10595703125	1020.59423828125	274.0802001953125	-828.763427734375	1180.251831054688	43.54859924316406	-818.396240234375	1119.182495117188	289.2716674804688	-825.472412109375	1369.719604492188	260.6895751953125	-821.1726684570312	1297.09619140625	101.6443634033203	-764.5435180664062	1220.410278320312	302.5458679199219	-926.4725341796875	1338.320922851562	277.751953125	-977.340087890625	1359.94775390625	192.2056427001953	-1048.698974609375	1245.555419921875	221.7066802978516	-1090.704711914062	1057.762329101562	199.0260772705078	-1028.923095703125	1020.233154296875	243.5848693847656	-1070.800170898438	940.060791015625	6.827125549316406	-1142.8310546875	917.228759765625	39.86687088012695	-1113.509521484375	988.0504150390625	139.8707733154297	-1151.096801757812	859.2816772460938	-24.36993598937988	-1108.699584960938	882.1683959960938	-66.10649108886719	-668.9185180664062	1343.740112304688	208.2107543945312	-617.9485473632812	1279.633544921875	232.5599517822266	-605.559814453125	1022.822814941406	286.7516174316406	-698.5993041992188	1020.916809082031	278.8693542480469	-612.3621215820312	785.640625	209.0346069335938	-563.4487915039062	788.4194946289062	264.3352355957031	-585.0917358398438	956.2114868164062	281.8353881835938	-617.4945678710938	618.865966796875	265.3771667480469	-567.48193359375	703.110107421875	288.4371948242188	-733.000732421875	1550.307250976562	234.8948211669922	-848.1242065429688	1567.983154296875	74.28867340087891	-730.3421020507812	1559.487548828125	101.3024215698242	-890.501220703125	1560.072631835938	216.8701934814453	-1008.797607421875	936.33935546875	214.8692932128906	-656.1041259765625	914.4766235351562	151.7429962158203	-734.5254516601562	934.7021484375	33.41830825805664	-991.8264770507812	933.2069702148438	92.90357971191406	-1041.061767578125	448.889892578125	199.0596618652344	-1034.736938476562	586.3397216796875	188.7674713134766	-972.7597045898438	177.0628204345703	562.4517211914062	-1020.976501464844	304.1004028320312	387.0011291503906	-927.0363159179688	33.61424255371094	428.4177856445312	-893.5272827148438	83.39833831787109	462.3009338378906	-988.8645629882812	65.8797607421875	505.2562866210938	-916.4863891601562	212.5956420898438	565.753173828125	-787.4432983398438	460.8917236328125	-32.43423461914062	-704.7450561523438	706.2225341796875	21.08898544311523	-884.7340698242188	53.14153289794922	-23.45827674865723	-824.9917602539062	340.2450866699219	-60.09579086303711	-935.8765258789062	39.70636749267578	-207.3372955322266	-973.5017700195312	44.40817642211914	-133.3696136474609	-876.2848510742188	48.39854431152344	-105.703971862793	-941.6348876953125	41.80818557739258	45.71625518798828	-1117.380859375	803.8004760742188	-101.9265213012695	-599.309326171875	678.5396728515625	229.7045440673828	nan	nan	nan	
223	2.22	-751.6611938476562	939.027587890625	245.5156707763672	-881.6495971679688	938.3225708007812	269.9178466796875	-815.7064208984375	1021.810180664062	262.3847351074219	-827.7665405273438	1181.89208984375	33.33964538574219	-819.3099975585938	1120.428344726562	278.2416076660156	-826.0015869140625	1371.079345703125	250.7555236816406	-820.7520141601562	1298.699829101562	91.64694976806641	-764.922607421875	1221.7353515625	292.5882263183594	-927.023681640625	1339.559936523438	267.214599609375	-977.457275390625	1361.205932617188	181.3793334960938	-1048.876708984375	1246.810546875	210.416015625	-1090.485961914062	1058.52099609375	188.1105194091797	-1028.515014648438	1021.865112304688	233.3632354736328	-1069.73583984375	935.1149291992188	-1.236871123313904	-1141.528686523438	912.55078125	32.44761657714844	-1112.77294921875	986.7344360351562	130.2632141113281	-1148.752563476562	852.1834716796875	-29.74051284790039	-1106.503662109375	874.18115234375	-72.16607666015625	-669.169677734375	1345.421264648438	198.9697570800781	-618.1131591796875	1281.181884765625	223.1552429199219	-605.3435668945312	1023.886657714844	275.2028503417969	-698.3848266601562	1022.048889160156	267.7253112792969	-612.4390258789062	788.2366333007812	192.8759918212891	-563.484130859375	789.4601440429688	248.1631774902344	-584.9834594726562	957.0938110351562	269.1730041503906	-618.4161376953125	620.1732177734375	244.7125244140625	-567.9775390625	703.4976806640625	270.1106872558594	-733.0364990234375	1551.330200195312	225.7848815917969	-847.0892333984375	1569.8525390625	64.39855194091797	-729.5408935546875	1560.921508789062	92.21702575683594	-890.47705078125	1561.57470703125	206.6138916015625	-1008.62890625	936.9304809570312	202.8840179443359	-655.47802734375	915.8539428710938	142.4900360107422	-732.9786376953125	936.0850830078125	23.38377571105957	-990.6513671875	934.6245727539062	81.11423492431641	-1045.312377929688	449.7716369628906	175.6147155761719	-1037.4345703125	586.8471069335938	168.7279968261719	-983.8688354492188	187.3800354003906	544.4739379882812	-1028.51904296875	307.8289794921875	365.4844665527344	-930.6649780273438	33.20713806152344	420.6751708984375	-899.6885986328125	88.86784362792969	452.2637634277344	-995.791259765625	71.88319396972656	493.3845825195312	-928.2833251953125	223.5197448730469	547.748291015625	-787.2968139648438	460.6448059082031	-37.95987319946289	-704.0465087890625	706.524658203125	12.75790691375732	-884.9122924804688	53.24164199829102	-23.56323432922363	-825.089599609375	339.6230773925781	-64.206787109375	-936.1297607421875	39.68539047241211	-207.4864196777344	-973.8121948242188	44.34571075439453	-133.4376068115234	-876.5227661132812	48.50474548339844	-105.8401184082031	-941.6151733398438	41.84730529785156	45.71976852416992	-1114.33642578125	794.5506591796875	-105.3399124145508	-599.5357055664062	680.7288208007812	210.7375335693359	nan	nan	nan	
224	2.23	-751.8171997070312	940.2229614257812	235.8708648681641	-881.9234008789062	938.7906494140625	259.4959411621094	-815.0332641601562	1023.054626464844	250.9839630126953	-826.8379516601562	1183.415649414062	23.3501091003418	-820.09765625	1121.735717773438	267.3360900878906	-826.4521484375	1372.502197265625	240.9153137207031	-820.342529296875	1300.21337890625	81.76114654541016	-765.1924438476562	1223.12841796875	282.7716064453125	-927.4923095703125	1340.83642578125	256.8341674804688	-977.5368041992188	1362.446166992188	170.7240447998047	-1048.974609375	1248.010131835938	199.3097534179688	-1090.375122070312	1059.208129882812	177.1510620117188	-1028.2138671875	1023.418273925781	223.1708984375	-1068.703002929688	930.0042724609375	-8.970114707946777	-1140.178955078125	907.6541137695312	25.43355751037598	-1112.082275390625	985.2828979492188	120.7628021240234	-1146.373779296875	844.908447265625	-34.64216613769531	-1104.212768554688	866.050048828125	-77.70720672607422	-669.3650512695312	1347.1015625	189.7592620849609	-618.1990966796875	1282.716674804688	213.8063354492188	-604.8257446289062	1024.937744140625	263.6817016601562	-697.8999633789062	1023.096374511719	256.7239379882812	-612.2108154296875	791.0414428710938	176.4788513183594	-563.1536865234375	790.6392211914062	231.6689300537109	-584.5777587890625	958.0018920898438	256.4276428222656	-618.9414672851562	621.7086791992188	223.3587646484375	-568.0674438476562	704.019287109375	251.2400817871094	-733.0529174804688	1552.451049804688	216.6871185302734	-846.0045776367188	1571.69482421875	54.50701904296875	-728.7064819335938	1562.387451171875	83.14596557617188	-890.4411010742188	1563.107055664062	196.3400268554688	-1008.308410644531	937.5703735351562	191.3590850830078	-654.805419921875	917.1963500976562	133.3861846923828	-731.5684204101562	937.32763671875	13.6527624130249	-989.533447265625	936.0489501953125	69.74321746826172	-1048.960327148438	450.9451293945312	151.8117370605469	-1039.714721679688	587.6450805664062	148.6827697753906	-994.8553466796875	196.7830352783203	525.2291259765625	-1035.72705078125	311.3764953613281	343.0792541503906	-935.6392822265625	33.4789924621582	410.0980224609375	-906.6586303710938	94.40522766113281	439.9238586425781	-1003.476318359375	78.11502075195312	479.1355895996094	-939.7359008789062	233.2384643554688	528.7846069335938	-786.7952270507812	460.2067260742188	-42.53612899780273	-703.1392822265625	706.6688842773438	5.074465751647949	-885.0557861328125	53.27042388916016	-23.58895301818848	-824.8038940429688	338.9100952148438	-67.54886627197266	-936.2705688476562	39.76071166992188	-207.5336761474609	-973.9909057617188	44.35113143920898	-133.4629974365234	-876.6470947265625	48.55963897705078	-105.8999862670898	-941.6224365234375	41.84876251220703	45.76338958740234	-1111.086547851562	785.2432861328125	-108.1949691772461	-599.3790283203125	683.2101440429688	191.2328338623047	nan	nan	nan	
